HIERARCHY
ROOT joint_Root
{
	OFFSET 0.0 0.0 0.0
	CHANNELS 6 Xposition Yposition Zposition Zrotation Xrotation Yrotation 
	JOINT Hips
	{
		OFFSET -0.726466 93.3139 -2.00062
		CHANNELS 6 Xposition Yposition Zposition Zrotation Xrotation Yrotation 
		JOINT Spine
		{
			OFFSET 15.7357 0.0 0.0
			CHANNELS 6 Xposition Yposition Zposition Zrotation Xrotation Yrotation 
			JOINT Chest
			{
				OFFSET 8.98455 -0.406207 0.0
				CHANNELS 6 Xposition Yposition Zposition Zrotation Xrotation Yrotation 
				JOINT Neck
				{
					OFFSET 16.3773 0.0 0.0
					CHANNELS 6 Xposition Yposition Zposition Zrotation Xrotation Yrotation 
					JOINT Head
					{
						OFFSET 6.45672 0.0 0.0
						CHANNELS 6 Xposition Yposition Zposition Zrotation Xrotation Yrotation 
						End Site
						{
							OFFSET 0.0 0.0 0.0
						}
					}
				}
				JOINT Shoulder_L
				{
					OFFSET 12.9942 -0.242716 4.98039
					CHANNELS 6 Xposition Yposition Zposition Zrotation Xrotation Yrotation 
					JOINT UpperArm_L
					{
						OFFSET 5.34809 0.0 0.0
						CHANNELS 6 Xposition Yposition Zposition Zrotation Xrotation Yrotation 
						JOINT LowerArm_L
						{
							OFFSET 24.3286 1.87007e-05 0.0
							CHANNELS 6 Xposition Yposition Zposition Zrotation Xrotation Yrotation 
							JOINT Hand_L
							{
								OFFSET 22.2916 0.0 0.0
								CHANNELS 6 Xposition Yposition Zposition Zrotation Xrotation Yrotation 
								End Site
								{
									OFFSET 0.0 0.0 0.0
								}
							}
						}
					}
				}
				JOINT Shoulder_R
				{
					OFFSET 12.9945 -0.242716 -4.98039
					CHANNELS 6 Xposition Yposition Zposition Zrotation Xrotation Yrotation 
					JOINT UpperArm_R
					{
						OFFSET -5.34813 0.0 0.0
						CHANNELS 6 Xposition Yposition Zposition Zrotation Xrotation Yrotation 
						JOINT LowerArm_R
						{
							OFFSET -24.3289 0.000322201 0.0
							CHANNELS 6 Xposition Yposition Zposition Zrotation Xrotation Yrotation 
							JOINT Hand_R
							{
								OFFSET -22.2915 -0.000108084 0.0
								CHANNELS 6 Xposition Yposition Zposition Zrotation Xrotation Yrotation 
								End Site
								{
									OFFSET 0.0 0.0 0.0
								}
							}
						}
					}
				}
			}
		}
		JOINT UpperLeg_L
		{
			OFFSET -2.19248 -6.46944 0.0
			CHANNELS 6 Xposition Yposition Zposition Zrotation Xrotation Yrotation 
			JOINT LowerLeg_L
			{
				OFFSET 39.0811 0.0 -1.23785e-05
				CHANNELS 6 Xposition Yposition Zposition Zrotation Xrotation Yrotation 
				JOINT Foot_L
				{
					OFFSET 40.9854 0.0 -1.26872e-05
					CHANNELS 6 Xposition Yposition Zposition Zrotation Xrotation Yrotation 
					JOINT Toes_L
					{
						OFFSET 11.7543 0.0 0.0
						CHANNELS 6 Xposition Yposition Zposition Zrotation Xrotation Yrotation 
						End Site
						{
							OFFSET 0.0 0.0 0.0
						}
					}
				}
			}
		}
		JOINT UpperLeg_R
		{
			OFFSET -2.19251 6.46944 0.0
			CHANNELS 6 Xposition Yposition Zposition Zrotation Xrotation Yrotation 
			JOINT LowerLeg_R
			{
				OFFSET -39.0811 -0.00228153 -0.0401928
				CHANNELS 6 Xposition Yposition Zposition Zrotation Xrotation Yrotation 
				JOINT Foot_R
				{
					OFFSET -40.9854 0.0 0.0
					CHANNELS 6 Xposition Yposition Zposition Zrotation Xrotation Yrotation 
					JOINT Toes_R
					{
						OFFSET -11.7543 0.0 0.0
						CHANNELS 6 Xposition Yposition Zposition Zrotation Xrotation Yrotation 
						End Site
						{
							OFFSET 0.0 0.0 0.0
						}
					}
				}
			}
		}
	}
}
MOTION
Frames:	6
Frame Time:	0.0333333
0.000000 0.000000 0.000000 0.000000 0.000000 -0.000000 136.995000 91.712300 -184.433000 89.476300 0.090530 1.837510 15.735700 0.000005 -0.000001 92.135800 81.859700 -91.349600 8.984550 -0.406207 -0.000000 8.499890 0.608884 1.525670 16.377300 -0.000001 -0.000001 9.177080 -2.143690 -0.252589 6.456720 -0.000001 -0.000000 3.156060 -4.059600 -1.452640 12.994200 -0.242716 4.980390 -88.652100 -2.919790 -65.206800 5.348090 -0.000007 -0.000001 -62.082800 37.113600 -7.371550 24.328600 0.000019 0.000005 5.300770 6.868820 -37.803300 22.291600 -0.000001 0.000005 1.181310 5.508290 -6.871040 12.994500 -0.242716 -4.980390 89.497400 1.198780 -67.253000 -5.348130 -0.000001 -0.000004 -51.291500 32.489600 -25.340800 -24.328900 0.000322 -0.000009 3.819010 4.368040 -41.242400 -22.291500 -0.000108 -0.000004 1.970490 5.528860 -7.745040 -2.192480 -6.469440 -0.000000 -174.826000 -8.928910 -16.729200 39.081100 -0.000007 -0.000012 0.060865 -0.035285 59.894700 40.985400 -0.000006 -0.000013 1.013080 -6.177670 -59.742300 11.754300 -0.000000 0.000003 -0.005213 -0.063521 -19.161500 -2.192510 6.469440 -0.000001 -176.597000 17.256900 170.463000 -39.081100 -0.002282 -0.040193 0.029768 -0.047484 29.131800 -40.985400 0.000008 0.000006 8.209690 -2.618210 -66.434900 -11.754300 -0.000006 -0.000006 -0.005014 -0.061604 -19.079600
0.000000 0.000000 0.000000 0.000000 0.000000 -0.000000 136.901000 91.973300 -182.174000 89.853800 -0.730646 1.828690 15.735700 0.000005 -0.000001 95.383700 81.853400 -94.828100 8.984550 -0.406207 -0.000000 8.450280 1.524840 0.997553 16.377300 -0.000001 -0.000001 8.874100 -1.894510 -0.428406 6.456720 -0.000001 -0.000000 3.120880 -4.555130 -1.560090 12.994200 -0.242716 4.980390 -88.621000 -2.888040 -64.462300 5.348090 -0.000007 -0.000001 -63.309600 35.884900 -4.812240 24.328600 0.000019 0.000005 4.923010 6.504670 -37.246900 22.291600 -0.000001 0.000005 1.324700 5.505130 -6.741390 12.994500 -0.242716 -4.980390 89.603700 0.979255 -67.966500 -5.348130 -0.000001 -0.000004 -48.618400 32.479400 -29.062800 -24.328900 0.000322 -0.000009 3.450100 3.773300 -42.503400 -22.291500 -0.000108 -0.000004 1.929560 5.526280 -7.632100 -2.192480 -6.469440 -0.000000 -176.191000 -10.571300 -19.326700 39.081100 -0.000007 -0.000012 0.048328 -0.034183 54.724900 40.985400 -0.000006 -0.000013 0.170207 -5.893710 -60.327000 11.754300 -0.000000 0.000003 -0.004964 -0.061124 -19.063800 -2.192510 6.469440 -0.000001 -177.575000 17.694700 173.202000 -39.081100 -0.002282 -0.040193 0.021345 -0.035202 27.130200 -40.985400 0.000008 0.000006 7.990660 -1.212680 -66.907900 -11.754300 -0.000006 -0.000006 -0.004443 -0.055967 -18.849900
0.000000 0.000000 0.000000 0.000000 0.000000 -0.000000 136.821000 92.047100 -179.958000 90.084600 -1.621330 1.870940 15.735700 0.000005 -0.000001 98.351300 81.806200 -97.976100 8.984550 -0.406207 -0.000000 8.445500 2.371210 0.574657 16.377300 -0.000001 -0.000001 8.684380 -1.608850 -0.579071 6.456720 -0.000001 -0.000000 2.989610 -4.853590 -1.692600 12.994200 -0.242716 4.980390 -88.609300 -2.820280 -63.737500 5.348090 -0.000007 -0.000001 -64.130000 35.127500 -2.548180 24.328600 0.000019 0.000005 4.813600 6.453590 -36.841300 22.291600 -0.000001 0.000005 1.170810 5.506130 -6.782360 12.994500 -0.242716 -4.980390 89.700900 0.762968 -68.594800 -5.348130 -0.000001 -0.000004 -45.823500 32.279300 -32.685300 -24.328900 0.000322 -0.000009 3.076910 3.258730 -43.410000 -22.291500 -0.000108 -0.000004 1.825860 5.529520 -7.773960 -2.192480 -6.469440 -0.000000 -177.381000 -12.127300 -21.155900 39.081100 -0.000007 -0.000012 0.035248 -0.032021 47.743200 40.985400 -0.000006 -0.000013 -0.648188 -4.988120 -60.222200 11.754300 -0.000000 0.000003 -0.005451 -0.065777 -19.253400 -2.192510 6.469440 -0.000001 -178.360000 17.400100 175.682000 -39.081100 -0.002282 -0.040193 0.014627 -0.023613 25.605500 -40.985400 0.000008 0.000006 7.645740 -0.686242 -67.533300 -11.754300 -0.000006 -0.000006 -0.003850 -0.049871 -18.601700
0.000000 0.000000 0.000000 0.000000 0.000000 -0.000000 136.772000 91.931500 -177.777000 90.126900 -2.516990 1.577660 15.735700 0.000005 -0.000001 101.121000 81.784400 -100.869000 8.984550 -0.406207 -0.000000 8.359230 3.155830 0.272714 16.377300 -0.000001 -0.000001 8.366470 -1.312550 -0.605168 6.456720 -0.000001 -0.000000 2.878180 -5.089860 -1.911660 12.994200 -0.242716 4.980390 -88.615600 -2.747600 -63.244400 5.348090 -0.000007 -0.000001 -64.889100 34.348200 -0.528117 24.328600 0.000019 0.000005 4.903750 6.641530 -36.568300 22.291600 -0.000001 0.000005 1.039580 5.505470 -6.755160 12.994500 -0.242716 -4.980390 89.770400 0.600879 -69.088300 -5.348130 -0.000001 -0.000004 -43.058800 31.779100 -36.234400 -24.328900 0.000322 -0.000009 3.047500 3.170950 -43.915200 -22.291500 -0.000108 -0.000004 2.040050 5.529800 -7.786400 -2.192480 -6.469440 -0.000000 -178.462000 -13.473700 -22.758800 39.081100 -0.000007 -0.000012 0.022399 -0.027144 39.527400 40.985400 -0.000006 -0.000013 -1.437970 -4.147800 -59.548400 11.754300 -0.000000 0.000003 -0.004692 -0.058464 -18.955400 -2.192510 6.469440 -0.000001 -178.917000 17.174000 177.415000 -39.081100 -0.002282 -0.040193 0.009559 -0.013492 24.842500 -40.985400 0.000008 0.000006 7.192380 0.055984 -68.464500 -11.754300 -0.000006 -0.000006 -0.003619 -0.047414 -18.501600
0.000000 0.000000 0.000000 0.000000 0.000000 -0.000000 136.743000 91.610400 -175.522000 89.827500 -3.428110 1.179200 15.735700 0.000005 -0.000001 103.420000 81.794700 -103.191000 8.984550 -0.406207 -0.000000 8.202200 3.792620 0.187033 16.377300 -0.000001 -0.000001 8.083040 -1.017830 -0.630650 6.456720 -0.000001 -0.000000 2.770350 -5.173940 -2.017880 12.994200 -0.242716 4.980390 -88.543400 -2.840860 -62.840200 5.348090 -0.000007 -0.000001 -65.887100 33.590700 1.525390 24.328600 0.000019 0.000005 4.828840 6.605430 -36.293200 22.291600 -0.000001 0.000005 1.030730 5.506090 -6.780020 12.994500 -0.242716 -4.980390 89.862200 0.369940 -69.578900 -5.348130 -0.000001 -0.000004 -41.051600 30.968000 -39.257700 -24.328900 0.000322 -0.000009 3.010040 3.129450 -43.937400 -22.291500 -0.000108 -0.000004 2.123070 5.530950 -7.836660 -2.192480 -6.469440 -0.000000 -179.169000 -14.424400 -23.765600 39.081100 -0.000007 -0.000012 0.011412 -0.019353 30.525700 40.985400 -0.000006 -0.000013 -1.839350 -3.494970 -59.506200 11.754300 -0.000000 0.000003 -0.004309 -0.054622 -18.798900 -2.192510 6.469440 -0.000001 -179.151000 16.975000 178.819000 -39.081100 -0.002282 -0.040193 0.004772 -0.003188 24.598700 -40.985400 0.000008 0.000006 6.948540 0.693488 -69.695400 -11.754300 -0.000006 -0.000006 -0.003552 -0.046699 -18.472500
0.000000 0.000000 0.000000 0.000000 0.000000 -0.000000 136.751000 91.121400 -173.084000 89.307800 -4.494770 0.826124 15.735700 0.000005 -0.000001 105.697000 81.754900 -105.430000 8.984550 -0.406207 -0.000000 8.117140 4.442590 0.217490 16.377300 -0.000001 -0.000001 7.774100 -0.752610 -0.602012 6.456720 -0.000001 -0.000000 2.629780 -5.146190 -2.101500 12.994200 -0.242716 4.980390 -88.431700 -3.021160 -62.549000 5.348090 -0.000007 -0.000001 -67.016600 32.925800 3.400230 24.328600 0.000019 0.000005 4.521990 6.267440 -35.921100 22.291600 -0.000001 0.000005 0.966962 5.505300 -6.748110 12.994500 -0.242716 -4.980390 89.942800 0.156597 -69.944800 -5.348130 -0.000001 -0.000004 -39.694900 30.039200 -41.711000 -24.328900 0.000322 -0.000009 3.080010 3.230850 -43.684400 -22.291500 -0.000108 -0.000004 2.220250 5.533820 -7.964460 -2.192480 -6.469440 -0.000000 -179.574000 -15.253100 -24.226300 39.081100 -0.000007 -0.000012 0.005388 -0.013687 21.488500 40.985400 -0.000006 -0.000013 -1.921880 -2.935260 -59.698800 11.754300 -0.000000 0.000003 -0.004760 -0.059127 -18.982400 -2.192510 6.469440 -0.000001 -179.273000 16.427500 -179.876000 -39.081100 -0.002282 -0.040193 -0.000762 0.008771 24.915100 -40.985400 0.000008 0.000006 6.395860 1.262430 -71.123200 -11.754300 -0.000006 -0.000006 -0.298304 -0.385843 -18.785500
